<svg width="54" height="55" viewBox="0 0 54 55" fill="none" xmlns="http://www.w3.org/2000/svg">
<path d="M10.86 23.8703C15.18 32.3305 22.14 39.2361 30.63 43.5708L37.23 36.994C38.04 36.1869 39.24 35.9178 40.29 36.2765C43.65 37.3826 47.28 37.9805 51 37.9805C52.65 37.9805 54 39.3258 54 40.97V51.4032C54 53.0474 52.65 54.3926 51 54.3926C22.83 54.3926 0 31.6429 0 3.57197C0 1.92777 1.35 0.58252 3 0.58252H13.5C15.15 0.58252 16.5 1.92777 16.5 3.57197C16.5 7.30878 17.1 10.8961 18.21 14.2443C18.54 15.2906 18.3 16.4565 17.46 17.2935L10.86 23.8703Z" fill="#434343"/>
</svg>
