<svg width="56" height="54" viewBox="0 0 56 54" fill="none" xmlns="http://www.w3.org/2000/svg">
<path d="M22.4028 1.89316C19.6809 3.289 17.8663 4.8942 15.633 7.96504C13.958 10.1984 12.5622 12.5015 12.5622 12.9202C12.5622 13.4088 11.4455 14.8744 10.0497 16.2005C7.18822 18.9223 5.58301 21.6442 5.58301 23.8077C5.58301 24.9942 6.00176 25.2036 8.58405 25.2036C11.1663 25.2036 11.7945 24.9244 12.4226 23.5286L13.1903 21.8536L17.2382 23.5286C22.8913 25.8317 30.359 25.8317 35.2445 23.5286C40.0601 21.2952 48.1559 12.0827 48.1559 8.87233C48.1559 7.4765 43.5497 3.91712 39.0132 1.82337C33.709 -0.619337 27.4278 -0.619337 22.4028 1.89316ZM37.8268 8.314C38.8736 8.94212 39.7809 9.77962 39.7809 10.1984C39.7809 11.664 34.6163 17.038 32.3132 17.9452C29.5913 19.1317 23.8684 19.2015 21.1465 18.1546L19.1924 17.3869L21.6351 16.34C22.9611 15.7817 25.4736 15.0838 27.2184 14.8744C30.359 14.3859 30.359 14.3859 30.5684 11.315L30.7778 8.2442L26.9393 8.59316C23.3799 8.87233 23.1705 8.80254 24.5663 7.89524C27.8465 5.59212 33.4997 5.7317 37.8268 8.314Z" fill="#DCA15D"/>
<path d="M0 33.8577C0 35.6025 0.279167 37.7661 0.628125 38.6734C1.675 41.3254 5.51354 45.3734 8.51458 46.9088C10.8177 48.0952 11.1667 48.5838 11.1667 50.6775V53.1202H27.9167H44.6667V50.6775C44.6667 48.5838 45.0156 48.0952 47.3187 46.9088C50.3198 45.3734 54.1583 41.3254 55.2052 38.6734C55.5542 37.7661 55.8333 35.6025 55.8333 33.8577V30.7869H27.9167H0V33.8577Z" fill="#DCA15D"/>
</svg>
